# xmcd
#
# Track frame offsets: 
#        150
#        8887
#        26497
#        46438
#        77304
#        102644
#        119589
#        145792
#        177166
#        199760
#
# Disc length: 3129 seconds
#
# Revision: 2
# Processed by: cddbd v1.5.2PL0 Copyright (c) Steve Scherf et al.
# Submitted via: ExactAudioCopy v0.99pb4
#
DISCID=7f0c370a
DTITLE=Hibria - Defying The Rules
DYEAR=2004
DGENRE=Power Metal
TTITLE0=Intro
TTITLE1=Steel Lord On Wheels
TTITLE2=Change Your Life Line
TTITLE3=Millennium Quest
TTITLE4=A Kingdom To Share
TTITLE5=Living Under Ice
TTITLE6=Defying The Rules
TTITLE7=The Faceless In Charge
TTITLE8=High Speed Breakout
TTITLE9=Stare At Yourself
EXTD=YEAR: 2004
EXTT0=
EXTT1=
EXTT2=
EXTT3=
EXTT4=
EXTT5=
EXTT6=
EXTT7=
EXTT8=
EXTT9=
PLAYORDER=
